<?xml version="1.0" encoding="UTF-8" standalone="no"?>
<!-- Generator: Adobe Illustrator 16.0.0, SVG Export Plug-In . SVG Version: 6.00 Build 0)  -->

<svg
   xmlns:dc="http://purl.org/dc/elements/1.1/"
   xmlns:cc="http://creativecommons.org/ns#"
   xmlns:rdf="http://www.w3.org/1999/02/22-rdf-syntax-ns#"
   xmlns:svg="http://www.w3.org/2000/svg"
   xmlns="http://www.w3.org/2000/svg"
   xmlns:sodipodi="http://sodipodi.sourceforge.net/DTD/sodipodi-0.dtd"
   xmlns:inkscape="http://www.inkscape.org/namespaces/inkscape"
   version="1.1"
   id="fur_x5F_FINAL"
   x="0px"
   y="0px"
   width="850.394px"
   height="850.382px"
   viewBox="0 0 850.394 850.382"
   enable-background="new 0 0 850.394 850.382"
   xml:space="preserve"
   inkscape:version="0.48.4 r9939"
   sodipodi:docname="tahr_orange_hex.svg"><metadata
     id="metadata23"><rdf:RDF><cc:Work
         rdf:about=""><dc:format>image/svg+xml</dc:format><dc:type
           rdf:resource="http://purl.org/dc/dcmitype/StillImage" /></cc:Work></rdf:RDF></metadata><defs
     id="defs21" /><sodipodi:namedview
     pagecolor="#ffffff"
     bordercolor="#666666"
     borderopacity="1"
     objecttolerance="10"
     gridtolerance="10"
     guidetolerance="10"
     inkscape:pageopacity="0"
     inkscape:pageshadow="2"
     inkscape:window-width="1301"
     inkscape:window-height="744"
     id="namedview19"
     showgrid="false"
     inkscape:zoom="1.1100893"
     inkscape:cx="318.13139"
     inkscape:cy="424.47613"
     inkscape:window-x="65"
     inkscape:window-y="24"
     inkscape:window-maximized="1"
     inkscape:current-layer="fur_x5F_FINAL" /><path
     style="fill:#dd4917"
     inkscape:connector-curvature="0"
     id="path5"
     d="m 315.541,278.747 c -4.13,-2.521 -41.348,-1.933 -42.175,0.002 -0.829,1.935 27.245,15.443 33.739,16.859 6.495,1.417 16.872,0 16.872,0 0,0 -4.306,-14.338 -8.436,-16.861 z" /><rect
     style="color:#000000;fill:#ffffff;fill-opacity:1;fill-rule:nonzero;stroke-width:1;stroke-linecap:butt;stroke-linejoin:miter;stroke-miterlimit:4;stroke-opacity:1;stroke-dasharray:none;stroke-dashoffset:0;marker:none;visibility:visible;display:inline;overflow:visible;enable-background:accumulate"
     id="rect3007"
     width="146.83504"
     height="89.182014"
     x="351.32309"
     y="435.1001" /><path
     style="fill:#dd4917"
     inkscape:connector-curvature="0"
     id="path7"
     d="m 605.427,229.755 c -8.876,21.763 -28.668,19.759 -31.295,19.226 5.475,-2.116 17.648,-9.822 15.604,-29.702 -7.513,-4.02 -13.868,-6.122 -17.596,-7.138 -23.753,-2.885 -48.019,10.348 -69.549,58.86 3.269,3.832 5.223,6.683 5.549,7.745 1.554,5.059 1.406,16.862 1.406,16.862 0,0 5.526,-28.455 16.871,-33.721 13.227,-6.14 42.135,-4.506 50.61,0.002 8.475,4.507 16.745,13.318 16.871,16.859 0.122,3.542 -40.951,30.975 -50.611,33.719 -9.661,2.743 -33.741,0 -33.741,0 h -10e-4 c 0,0 -15.042,28.688 -16.868,33.719 -1.684,4.635 -14.587,72.292 -16.604,82.901 -7.593,-4.034 -30.877,-15.466 -50.878,-15.466 -20.002,0 -43.284,11.433 -50.876,15.466 -2.019,-10.61 -14.922,-78.266 -16.605,-82.901 -1.827,-5.031 -16.87,-33.719 -16.87,-33.719 h -10e-4 c 0,0 -24.079,2.743 -33.74,0 -9.66,-2.744 -50.734,-30.177 -50.61,-33.719 0.124,-3.541 8.396,-12.353 16.871,-16.859 8.474,-4.508 37.383,-6.142 50.61,-0.002 11.344,5.266 16.869,33.721 16.869,33.721 0,0 -0.146,-11.804 1.407,-16.862 0.325,-1.062 2.279,-3.913 5.547,-7.745 -21.526,-48.51 -45.791,-61.743 -69.544,-58.861 -3.726,1.015 -10.084,3.117 -17.599,7.139 -2.044,19.88 10.129,27.586 15.605,29.702 -2.627,0.533 -22.42,2.537 -31.294,-19.226 -27.421,22.397 -56.982,70.982 -37.332,174.641 l 6.683,-24.49 -2.706,43.294 c 0.914,3.934 1.897,7.946 2.947,12.026 l 8.195,-30.033 -3.048,48.74 c 0.978,3.341 2.002,6.73 3.069,10.163 l 8.415,-42.043 -3.568,57.044 c 1.148,3.423 2.333,6.883 3.567,10.395 l 8.436,-42.148 v 64.847 c 1.554,3.963 3.123,7.846 4.705,11.652 l 3.731,-59.641 3.3,75.875 c 3.299,7.307 6.646,14.299 10.029,20.994 l 3.54,-88.439 4.512,103.709 c 2.644,4.797 5.303,9.418 7.975,13.879 l 4.384,-100.728 5.551,116.493 c 2.045,3.082 4.093,6.076 6.143,8.979 l 5.176,-108.613 6.545,124.262 c 1.463,1.84 2.925,3.639 4.384,5.395 l 5.941,-112.799 7.53,127.936 c 1.039,1.088 2.075,2.15 3.109,3.199 l 6.23,-105.844 7.95,119.168 c 1.172,1.018 2.34,2.01 3.501,2.98 l 5.419,-113.719 6.478,122.99 c 1.557,1.129 3.101,2.215 4.63,3.26 l 5.762,-109.393 6.908,117.354 c 1.322,0.76 2.628,1.484 3.917,2.182 l 6.045,-102.676 7.282,109.124 c 1.134,0.484 2.248,0.943 3.343,1.379 l 6.248,-93.645 7.565,98.289 c 1.138,0.307 2.238,0.586 3.297,0.838 l 6.008,-78.051 6.674,80.031 c 0.641,0.033 1.23,0.049 1.762,0.049 0.532,0 1.12,-0.016 1.761,-0.049 l 6.674,-80.031 6.009,78.051 c 1.058,-0.252 2.159,-0.531 3.296,-0.838 l 7.566,-98.289 6.246,93.645 c 1.096,-0.436 2.21,-0.895 3.343,-1.379 l 7.279,-109.125 6.044,102.676 c 1.292,-0.697 2.598,-1.422 3.919,-2.182 l 6.908,-117.354 5.761,109.393 c 1.53,-1.045 3.075,-2.131 4.632,-3.26 l 6.478,-122.99 5.42,113.719 c 1.161,-0.971 2.328,-1.963 3.5,-2.98 l 7.95,-119.168 6.23,105.844 c 1.034,-1.049 2.071,-2.111 3.11,-3.199 l 7.53,-127.936 5.94,112.799 c 1.461,-1.756 2.922,-3.555 4.384,-5.395 l 6.545,-124.262 5.176,108.613 c 2.052,-2.902 4.099,-5.896 6.144,-8.979 l 5.551,-116.493 4.384,100.728 c 2.672,-4.459 5.332,-9.082 7.975,-13.879 l 4.512,-103.709 3.541,88.439 c 3.383,-6.695 6.729,-13.688 10.027,-20.992 l 3.303,-75.877 3.729,59.641 c 1.582,-3.805 3.149,-7.689 4.706,-11.65 v -64.849 l 8.435,42.149 v -0.001 c 1.235,-3.511 2.419,-6.971 3.567,-10.394 l -3.567,-57.045 8.413,42.044 c 1.068,-3.433 2.092,-6.822 3.069,-10.164 l -3.049,-48.74 8.197,30.034 c 1.049,-4.08 2.034,-8.092 2.947,-12.026 l -2.708,-43.296 6.684,24.49 C 662.409,300.737 632.847,252.152 605.427,229.755 z M 390.744,463.477 c -15.92,-7.086 -1.074,-16.645 1.034,-16.19 4.079,0.878 22.646,13.256 24.983,16.913 2.338,3.658 1.487,8.173 -0.351,8.982 -2.481,1.096 -18.184,-6.375 -25.666,-9.705 z m 51.725,26.589 c -0.42,0.291 -10.36,5.746 -17.272,5.746 -6.911,0 -16.853,-5.453 -17.272,-5.744 -0.253,-0.177 -0.362,-0.496 -0.269,-0.787 0.091,-0.295 0.363,-0.494 0.67,-0.494 l 33.741,-0.002 c 0.306,0 0.578,0.199 0.67,0.494 0.093,0.291 -0.016,0.61 -0.268,0.787 z m 17.179,-26.589 c -7.482,3.33 -23.187,10.801 -25.666,9.705 -1.84,-0.81 -2.69,-5.324 -0.352,-8.982 2.338,-3.657 20.903,-16.035 24.983,-16.913 2.109,-0.454 16.953,9.104 1.035,16.19 z" /><path
     style="fill:#dd4917"
     inkscape:connector-curvature="0"
     id="path9"
     d="m 543.289,295.608 c 6.494,-1.416 34.565,-14.925 33.738,-16.859 -0.828,-1.935 -38.045,-2.523 -42.175,-0.002 -4.131,2.522 -8.436,16.861 -8.436,16.861 0,0 10.376,1.417 16.873,0 z" /><path
     style="fill:#dd4917"
     inkscape:connector-curvature="0"
     id="path11"
     d="m 404.624,223.554 c 5.073,-2.383 11.35,-4.224 18.819,-4.477 C 387.01,149.287 266.23,93.686 242.039,204.996 c 23.775,-82.846 125.527,-56.68 162.585,18.558 z" /><path
     style="fill:#dd4917"
     inkscape:connector-curvature="0"
     id="path13"
     d="M 608.353,204.997 C 584.161,93.686 463.381,149.288 426.949,219.078 c 7.471,0.253 13.745,2.094 18.819,4.478 37.059,-75.24 138.81,-101.406 162.585,-18.559 z" /><path
     style="fill:#dd4917"
     inkscape:connector-curvature="0"
     id="path15"
     d="m 374.586,295.606 c -3.828,-2.485 -25.305,8.431 -25.305,8.431 0,0 11.187,15.887 16.869,16.86 5.682,0.973 16.054,-4.982 16.872,-8.43 0.818,-3.448 -4.608,-14.375 -8.436,-16.861 z" /><path
     style="fill:#dd4917"
     inkscape:connector-curvature="0"
     id="path17"
     d="m 467.37,312.468 c 0.817,3.447 11.189,9.402 16.872,8.43 5.682,-0.974 16.869,-16.86 16.869,-16.86 0,0 -21.479,-10.916 -25.306,-8.431 -3.827,2.485 -9.253,13.414 -8.435,16.861 z" /></svg>